HIERARCHY
ROOT Hips
{
  OFFSET -1.93004 89.2262 -13.9866
  CHANNELS 6 Xposition Yposition Zposition Zrotation Xrotation Yrotation
  JOINT Spine
  {
    OFFSET 0 9.9235 -1.2273
    CHANNELS 6 Xposition Yposition Zposition Zrotation Xrotation Yrotation
    JOINT Spine1
    {
      OFFSET -0.0001 11.6454 -1.4223
      CHANNELS 6 Xposition Yposition Zposition Zrotation Xrotation Yrotation
      JOINT Spine2
      {
        OFFSET 0.0001 13.3602 -1.6265
        CHANNELS 6 Xposition Yposition Zposition Zrotation Xrotation Yrotation
        JOINT Neck
        {
          OFFSET 0 15.0325 0.7929
          CHANNELS 6 Xposition Yposition Zposition Zrotation Xrotation Yrotation
          JOINT Head
          {
            OFFSET 0 10.3218 3.1424
            CHANNELS 6 Xposition Yposition Zposition Zrotation Xrotation Yrotation
            End Site
            {
              OFFSET 0 0 0
            }
          }
        }
        JOINT LeftShoulder
        {
          OFFSET 6.1058 9.1104 0.7056
          CHANNELS 6 Xposition Yposition Zposition Zrotation Xrotation Yrotation
          JOINT LeftArm
          {
            OFFSET 12.655 -0.2659 -2.6009
            CHANNELS 6 Xposition Yposition Zposition Zrotation Xrotation Yrotation
            JOINT LeftForeArm
            {
              OFFSET 27.4047 0 0
              CHANNELS 6 Xposition Yposition Zposition Zrotation Xrotation Yrotation
              JOINT LeftHand
              {
                OFFSET 27.6145 0 0
                CHANNELS 6 Xposition Yposition Zposition Zrotation Xrotation Yrotation
                JOINT LeftHandMiddle1
                {
                  OFFSET 12.7755 0 0
                  CHANNELS 6 Xposition Yposition Zposition Zrotation Xrotation Yrotation
                  JOINT LeftHandMiddle2
                  {
                    OFFSET 3.614 0 0
                    CHANNELS 6 Xposition Yposition Zposition Zrotation Xrotation Yrotation
                    JOINT LeftHandMiddle3
                    {
                      OFFSET 3.4598 0 0
                      CHANNELS 6 Xposition Yposition Zposition Zrotation Xrotation Yrotation
                      End Site
                      {
                        OFFSET 3.6802 0 0
                      }
                    }
                  }
                }
                JOINT LeftHandThumb1
                {
                  OFFSET 3.7888 -2.167 3.0031
                  CHANNELS 6 Xposition Yposition Zposition Zrotation Xrotation Yrotation
                  JOINT LeftHandThumb2
                  {
                    OFFSET 3.6754 -2.122 2.122
                    CHANNELS 6 Xposition Yposition Zposition Zrotation Xrotation Yrotation
                    JOINT LeftHandThumb3
                    {
                      OFFSET 3.3944 -1.9597 1.9598
                      CHANNELS 6 Xposition Yposition Zposition Zrotation Xrotation Yrotation
                      End Site
                      {
                        OFFSET 2.6794 -1.5469 1.5469
                      }
                    }
                  }
                }
                JOINT LeftHandIndex1
                {
                  OFFSET 12.2666 -0.2317 2.8221
                  CHANNELS 6 Xposition Yposition Zposition Zrotation Xrotation Yrotation
                  JOINT LeftHandIndex2
                  {
                    OFFSET 3.892 0 0
                    CHANNELS 6 Xposition Yposition Zposition Zrotation Xrotation Yrotation
                    JOINT LeftHandIndex3
                    {
                      OFFSET 3.4152 0 0
                      CHANNELS 6 Xposition Yposition Zposition Zrotation Xrotation Yrotation
                      End Site
                      {
                        OFFSET 3.078 0 0
                      }
                    }
                  }
                }
                JOINT LeftHandRing1
                {
                  OFFSET 12.147 0.0099 -2.2166
                  CHANNELS 6 Xposition Yposition Zposition Zrotation Xrotation Yrotation
                  JOINT LeftHandRing2
                  {
                    OFFSET 3.6012 0 0
                    CHANNELS 6 Xposition Yposition Zposition Zrotation Xrotation Yrotation
                    JOINT LeftHandRing3
                    {
                      OFFSET 3.3073 0 0
                      CHANNELS 6 Xposition Yposition Zposition Zrotation Xrotation Yrotation
                      End Site
                      {
                        OFFSET 3.6601 0 0
                      }
                    }
                  }
                }
                JOINT LeftHandPinky1
                {
                  OFFSET 10.9082 -0.2264 -4.7258
                  CHANNELS 6 Xposition Yposition Zposition Zrotation Xrotation Yrotation
                  JOINT LeftHandPinky2
                  {
                    OFFSET 4.1367 0 0
                    CHANNELS 6 Xposition Yposition Zposition Zrotation Xrotation Yrotation
                    JOINT LeftHandPinky3
                    {
                      OFFSET 2.5948 0 0
                      CHANNELS 6 Xposition Yposition Zposition Zrotation Xrotation Yrotation
                      End Site
                      {
                        OFFSET 2.9239 0 0
                      }
                    }
                  }
                }
              }
            }
          }
        }
        JOINT RightShoulder
        {
          OFFSET -6.1057 9.1105 0.7056
          CHANNELS 6 Xposition Yposition Zposition Zrotation Xrotation Yrotation
          JOINT RightArm
          {
            OFFSET -12.655 -0.266 -2.6009
            CHANNELS 6 Xposition Yposition Zposition Zrotation Xrotation Yrotation
            JOINT RightForeArm
            {
              OFFSET -27.4047 0 0
              CHANNELS 6 Xposition Yposition Zposition Zrotation Xrotation Yrotation
              JOINT RightHand
              {
                OFFSET -27.6145 0 0
                CHANNELS 6 Xposition Yposition Zposition Zrotation Xrotation Yrotation
                JOINT RightHandMiddle1
                {
                  OFFSET -12.7755 0 0
                  CHANNELS 6 Xposition Yposition Zposition Zrotation Xrotation Yrotation
                  JOINT RightHandMiddle2
                  {
                    OFFSET -3.614 0 0
                    CHANNELS 6 Xposition Yposition Zposition Zrotation Xrotation Yrotation
                    JOINT RightHandMiddle3
                    {
                      OFFSET -3.4598 0 0
                      CHANNELS 6 Xposition Yposition Zposition Zrotation Xrotation Yrotation
                      End Site
                      {
                        OFFSET -3.6802 0 0
                      }
                    }
                  }
                }
                JOINT RightHandThumb1
                {
                  OFFSET -3.7888 -2.167 3.0031
                  CHANNELS 6 Xposition Yposition Zposition Zrotation Xrotation Yrotation
                  JOINT RightHandThumb2
                  {
                    OFFSET -3.6754 -2.122 2.122
                    CHANNELS 6 Xposition Yposition Zposition Zrotation Xrotation Yrotation
                    JOINT RightHandThumb3
                    {
                      OFFSET -3.3944 -1.9597 1.9598
                      CHANNELS 6 Xposition Yposition Zposition Zrotation Xrotation Yrotation
                      End Site
                      {
                        OFFSET -2.6794 -1.5469 1.5469
                      }
                    }
                  }
                }
                JOINT RightHandIndex1
                {
                  OFFSET -12.2666 -0.2317 2.8221
                  CHANNELS 6 Xposition Yposition Zposition Zrotation Xrotation Yrotation
                  JOINT RightHandIndex2
                  {
                    OFFSET -3.892 0 0
                    CHANNELS 6 Xposition Yposition Zposition Zrotation Xrotation Yrotation
                    JOINT RightHandIndex3
                    {
                      OFFSET -3.4152 0 0
                      CHANNELS 6 Xposition Yposition Zposition Zrotation Xrotation Yrotation
                      End Site
                      {
                        OFFSET -3.078 0 0
                      }
                    }
                  }
                }
                JOINT RightHandRing1
                {
                  OFFSET -12.147 0.0099 -2.2166
                  CHANNELS 6 Xposition Yposition Zposition Zrotation Xrotation Yrotation
                  JOINT RightHandRing2
                  {
                    OFFSET -3.6012 0 0
                    CHANNELS 6 Xposition Yposition Zposition Zrotation Xrotation Yrotation
                    JOINT RightHandRing3
                    {
                      OFFSET -3.3073 0 0
                      CHANNELS 6 Xposition Yposition Zposition Zrotation Xrotation Yrotation
                      End Site
                      {
                        OFFSET -3.6601 0 0
                      }
                    }
                  }
                }
                JOINT RightHandPinky1
                {
                  OFFSET -10.9082 -0.2264 -4.7258
                  CHANNELS 6 Xposition Yposition Zposition Zrotation Xrotation Yrotation
                  JOINT RightHandPinky2
                  {
                    OFFSET -4.1367 0 0
                    CHANNELS 6 Xposition Yposition Zposition Zrotation Xrotation Yrotation
                    JOINT RightHandPinky3
                    {
                      OFFSET -2.5948 0 0
                      CHANNELS 6 Xposition Yposition Zposition Zrotation Xrotation Yrotation
                      End Site
                      {
                        OFFSET -2.9239 0 0
                      }
                    }
                  }
                }
              }
            }
          }
        }
      }
    }
  }
  JOINT RightUpLeg
  {
    OFFSET -9.1245 -6.6564 -0.0554
    CHANNELS 6 Xposition Yposition Zposition Zrotation Xrotation Yrotation
    JOINT RightLeg
    {
      OFFSET -0.2447 -40.5954 -0.5145
      CHANNELS 6 Xposition Yposition Zposition Zrotation Xrotation Yrotation
      JOINT RightFoot
      {
        OFFSET 0.2447 -42.0479 -2.0602
        CHANNELS 6 Xposition Yposition Zposition Zrotation Xrotation Yrotation
        JOINT RightToeBase
        {
          OFFSET -0.3734 -10.4922 12.6407
          CHANNELS 6 Xposition Yposition Zposition Zrotation Xrotation Yrotation
          End Site
          {
            OFFSET 0 0 9.9925
          }
        }
      }
    }
  }
  JOINT LeftUpLeg
  {
    OFFSET 9.1245 -6.6564 -0.0554
    CHANNELS 6 Xposition Yposition Zposition Zrotation Xrotation Yrotation
    JOINT LeftLeg
    {
      OFFSET 0.2447 -40.5954 -0.517
      CHANNELS 6 Xposition Yposition Zposition Zrotation Xrotation Yrotation
      JOINT LeftFoot
      {
        OFFSET -0.2447 -42.048 -2.0576
        CHANNELS 6 Xposition Yposition Zposition Zrotation Xrotation Yrotation
        JOINT LeftToeBase
        {
          OFFSET 0.3734 -10.4922 12.6407
          CHANNELS 6 Xposition Yposition Zposition Zrotation Xrotation Yrotation
          End Site
          {
            OFFSET 0 0 9.9925
          }
        }
      }
    }
  }
}
MOTION
Frames:	4
Frame Time:	0.0333333
-1.93004 89.2262 -13.9866 0.916859 18.9951 -16.4863 0 9.9235 -1.2273 -1.80845 7.52495 0.654131 -0.0001 11.6454 -1.4223 -2.99362 12.0947 0.695051 0.0001 13.3602 -1.6265 -3.03375 12.0779 0.94132 0 15.0325 0.7929 -6.85969 2.47918 -0.676771 7.10543e-015 10.3218 3.1424 4.61713 -43.152 -8.72964 6.1058 9.1104 0.7056 -11.8658 1.2155 1.02646 12.655 -0.2659 -2.6009 -25.2286 7.89173 -28.7729 27.4047 0 1.42109e-014 -5.24199e-006 -1.03996e-005 -55.8198 27.6145 0 0 21.2096 34.7086 -27.3941 12.7755 0 -3.55271e-015 -2.56935 -0.0069527 0.309835 3.614 0 -8.88178e-016 -10.3565 -0.11261 1.24258 3.4598 0 0 -5.17058 -0.0281201 0.622879 3.7888 -2.167 3.0031 1.7862 -3.04747 -23.2619 3.6754 -2.122 2.122 1.83868 6.32848 26.7275 3.3944 -1.9597 1.9598 3.37276 0.912736 11.0003 12.2666 -0.2317 2.8221 -2.58533 -0.00704326 0.311761 3.892 -7.10543e-015 -2.66454e-015 -10.3406 -0.112253 1.24069 3.4152 0 1.77636e-015 -5.17058 -0.0281284 0.622892 12.147 0.0099 -2.2166 -2.58533 -0.00704326 0.311761 3.6012 -7.10543e-015 -1.77636e-015 -10.3406 -0.112253 1.24069 3.3073 -1.42109e-014 0 -5.17058 -0.0281284 0.622892 10.9082 -0.2264 -4.7258 -2.07587 0.0137724 4.3661 4.1367 0 3.55271e-015 -10.8327 0.632908 -2.74463 2.5948 1.42109e-014 1.77636e-015 -5.17058 -0.0281262 0.622875 -6.1057 9.1105 0.7056 2.75138 2.21108 4.56601 -12.655 -0.266 -2.6009 63.602 10.1371 42.9208 -27.4047 0 0 -5.81946e-006 2.1324e-006 47.6546 -27.6145 0 -7.10543e-015 -2.44355 22.6291 -0.130956 -12.7755 7.10543e-015 3.55271e-015 9.54166e-015 0 -3.18055e-015 -3.614 0 -3.55271e-015 15.9377 -0.268365 -1.91688 -3.4598 -7.10543e-015 0 7.96998 -0.0674201 -0.967773 -3.7888 -2.167 3.0031 -5.94719 -1.88339 0.384084 -3.6754 -2.122 2.122 -1.19444 6.73775 -26.0446 -3.3944 -1.9597 1.9598 -2.97002 -0.044414 -8.62405 -12.2666 -0.2317 2.8221 9.54166e-015 0 -3.18055e-015 -3.892 0 7.10543e-015 15.9377 -0.268365 -1.91688 -3.4152 -7.10543e-015 0 7.96998 -0.0674201 -0.967773 -12.147 0.0099 -2.2166 9.54166e-015 0 -3.18055e-015 -3.6012 7.10543e-015 -7.10543e-015 15.9377 -0.268365 -1.91688 -3.3073 0 0 7.96998 -0.0674201 -0.967773 -10.9082 -0.2264 -4.7258 9.54166e-015 0 -3.18055e-015 -4.1367 7.10543e-015 0 15.9377 -0.268365 -1.91688 -2.5948 7.10543e-015 0 7.96998 -0.0674201 -0.967773 -9.1245 -6.6564 -0.0554 -23.4416 -44.7007 -22.7129 -0.2447 -40.5954 -0.5145 3.36544 50.9018 -5.54275 0.2447 -42.0479 -2.0602 13.345 -17.2638 1.79155 -0.3734 -10.4922 12.6407 -3.72026e-006 -1.97485 -4.20455e-006 9.1245 -6.6564 -0.0554 44.4867 -50.374 41.6935 0.2447 -40.5954 -0.517 3.37063 41.8287 -5.07165 -0.2447 -42.048 -2.0576 -19.4524 0.256298 1.1416 0.3734 -10.4922 12.6407 -4.54541e-006 -5.48807 -5.5348e-006 
-2.03811 89.3121 -14.1351 1.09874 19.457 -16.4248 0 9.9235 -1.2273 -1.76787 7.58281 0.555313 -0.0001 11.6454 -1.4223 -2.9415 12.1941 0.517825 0.0001 13.3602 -1.6265 -2.97809 12.1809 0.763742 0 15.0325 0.7929 -6.93445 2.19449 -0.680294 7.10543e-015 10.3218 3.1424 4.47586 -43.3873 -8.64614 6.1058 9.1104 0.7056 -11.8458 1.20577 1.02205 12.655 -0.2659 -2.6009 -25.4163 7.83113 -28.6208 27.4047 0 0 3.48488e-006 -5.94053e-007 -56.8773 27.6145 -7.10543e-015 -7.10543e-015 21.0413 34.0954 -26.2209 12.7755 0 -6.21725e-015 -2.56935 -0.00694118 0.309855 3.614 0 0 -10.3566 -0.112618 1.24259 3.4598 -7.10543e-015 -1.77636e-015 -5.17058 -0.0281219 0.622883 3.7888 -2.167 3.0031 1.78621 -3.04747 -23.2618 3.6754 -2.122 2.122 1.83867 6.3285 26.7275 3.3944 -1.9597 1.9598 3.37275 0.912722 11.0003 12.2666 -0.2317 2.8221 -2.58533 -0.00703153 0.311771 3.892 0 1.77636e-015 -10.3406 -0.112268 1.24069 3.4152 -7.10543e-015 -8.88178e-016 -5.17058 -0.0281157 0.622898 12.147 0.0099 -2.2166 -2.58533 -0.00703153 0.311771 3.6012 0 -8.88178e-016 -10.3406 -0.112268 1.24069 3.3073 0 0 -5.17058 -0.0281157 0.622898 10.9082 -0.2264 -4.7258 -2.07586 0.0137639 4.3661 4.1367 -7.10543e-015 -1.77636e-015 -10.8327 0.632905 -2.74462 2.5948 0 -5.32907e-015 -5.17058 -0.0281231 0.622876 -6.1057 9.1105 0.7056 2.87698 2.3381 4.4696 -12.655 -0.266 -2.6009 63.8293 10.9206 41.3934 -27.4047 7.10543e-015 -7.10543e-015 -2.06977e-005 -4.40391e-006 50.3806 -27.6145 0 7.10543e-015 -2.61996 23.1296 0.340082 -12.7755 0 -3.55271e-015 -1.80914e-006 -6.36111e-015 2.17697e-006 -3.614 1.42109e-014 0 15.9377 -0.268368 -1.91688 -3.4598 0 -3.55271e-015 7.96995 -0.0674197 -0.967784 -3.7888 -2.167 3.0031 -5.94721 -1.88338 0.384086 -3.6754 -2.122 2.122 -1.19445 6.73775 -26.0446 -3.3944 -1.9597 1.9598 -2.97004 -0.0444093 -8.62405 -12.2666 -0.2317 2.8221 -1.80914e-006 -6.36111e-015 2.17697e-006 -3.892 -7.10543e-015 3.55271e-015 15.9377 -0.268368 -1.91688 -3.4152 0 0 7.96995 -0.0674197 -0.967784 -12.147 0.0099 -2.2166 -1.80914e-006 -6.36111e-015 2.17697e-006 -3.6012 0 0 15.9377 -0.268368 -1.91688 -3.3073 -7.10543e-015 -3.55271e-015 7.96995 -0.0674197 -0.967784 -10.9082 -0.2264 -4.7258 -1.80914e-006 -6.36111e-015 2.17697e-006 -4.1367 0 3.55271e-015 15.9377 -0.268368 -1.91688 -2.5948 0 -1.77636e-015 7.96995 -0.0674197 -0.967784 -9.1245 -6.6564 -0.0554 -23.3154 -45.1494 -22.4519 -0.2447 -40.5954 -0.5145 3.26021 50.6 -5.54635 0.2447 -42.0479 -2.0602 13.3534 -17.1949 1.77513 -0.3734 -10.4922 12.6407 2.21819e-006 -1.68859 -1.89856e-005 9.1245 -6.6564 -0.0554 44.2814 -50.7348 41.4105 0.2447 -40.5954 -0.517 3.59909 41.0415 -5.09617 -0.2447 -42.048 -2.0576 -19.7713 0.872754 1.27008 0.3734 -10.4922 12.6407 1.0766e-006 -5.30259 -4.14999e-007 
-2.2524 89.4369 -14.4216 1.31569 19.9583 -16.426 0 9.9235 -1.2273 -1.72852 7.71502 0.430014 -0.0001 11.6454 -1.4223 -2.89227 12.4374 0.318669 0.0001 13.3602 -1.6265 -2.9364 12.4259 0.56302 3.55271e-015 15.0325 0.7929 -7.05872 1.79534 -0.665218 0 10.3218 3.1424 4.44713 -43.7204 -8.40348 6.1058 9.1104 0.7056 -11.8451 1.25016 0.958026 12.655 -0.2659 -2.6009 -25.4975 7.48406 -28.3897 27.4047 7.10543e-015 0 4.67045e-006 1.06021e-005 -57.8784 27.6145 0 0 21.0053 33.242 -24.9893 12.7755 0 -8.88178e-016 -2.56936 -0.00695776 0.309825 3.614 0 8.88178e-016 -10.3565 -0.112618 1.24259 3.4598 7.10543e-015 0 -5.17058 -0.0281184 0.622871 3.7888 -2.167 3.0031 1.78619 -3.04748 -23.2619 3.6754 -2.122 2.122 1.83868 6.32848 26.7275 3.3944 -1.9597 1.9598 3.37276 0.912729 11.0003 12.2666 -0.2317 2.8221 -2.58534 -0.00704483 0.311751 3.892 0 1.77636e-015 -10.3406 -0.112272 1.2407 3.4152 0 0 -5.17058 -0.0281192 0.622873 12.147 0.0099 -2.2166 -2.58534 -0.00704483 0.311751 3.6012 0 3.55271e-015 -10.3406 -0.112272 1.2407 3.3073 7.10543e-015 8.88178e-016 -5.17058 -0.0281192 0.622873 10.9082 -0.2264 -4.7258 -2.07586 0.0137678 4.36607 4.1367 -7.10543e-015 3.55271e-015 -10.8327 0.632907 -2.7446 2.5948 -7.10543e-015 3.55271e-015 -5.17058 -0.0281247 0.622867 -6.1057 9.1105 0.7056 2.71356 2.69065 5.04682 -12.655 -0.266 -2.6009 63.4533 11.2682 40.0948 -27.4047 -7.10543e-015 -7.10543e-015 -2.05198e-005 -5.40443e-006 53.0197 -27.6145 0 0 -2.87174 22.4065 0.858079 -12.7755 -7.10543e-015 3.55271e-015 1.17814e-007 3.4995e-006 1.08368e-007 -3.614 0 3.55271e-015 15.9377 -0.268368 -1.91686 -3.4598 7.10543e-015 0 7.96996 -0.0674239 -0.967784 -3.7888 -2.167 3.0031 -5.94719 -1.88339 0.384096 -3.6754 -2.122 2.122 -1.19442 6.73774 -26.0446 -3.3944 -1.9597 1.9598 -2.97004 -0.0444213 -8.62405 -12.2666 -0.2317 2.8221 1.17814e-007 3.4995e-006 1.08368e-007 -3.892 0 -3.55271e-015 15.9377 -0.268368 -1.91686 -3.4152 0 -3.55271e-015 7.96996 -0.0674239 -0.967784 -12.147 0.0099 -2.2166 1.17814e-007 3.4995e-006 1.08368e-007 -3.6012 0 0 15.9377 -0.268368 -1.91686 -3.3073 0 3.55271e-015 7.96996 -0.0674239 -0.967784 -10.9082 -0.2264 -4.7258 1.17814e-007 3.4995e-006 1.08368e-007 -4.1367 7.10543e-015 3.55271e-015 15.9377 -0.268368 -1.91686 -2.5948 7.10543e-015 -3.55271e-015 7.96996 -0.0674239 -0.967784 -9.1245 -6.6564 -0.0554 -23.044 -45.7893 -22.0466 -0.2447 -40.5954 -0.5145 3.16877 50.2955 -5.73138 0.2447 -42.0479 -2.0602 13.152 -17.031 1.71781 -0.3734 -10.4922 12.6407 2.77308e-006 -1.40532 2.93706e-006 9.1245 -6.6564 -0.0554 44.0698 -50.9506 40.8318 0.2447 -40.5954 -0.517 3.52433 39.8485 -4.67316 -0.2447 -42.048 -2.0576 -20.1669 1.74834 1.45891 0.3734 -10.4922 12.6407 2.18406e-006 -5.15019 -5.73589e-007 
-2.57294 89.544 -14.8561 1.65378 20.6015 -16.529 -1.77636e-015 9.9235 -1.2273 -1.70937 7.9285 0.291771 -0.0001 11.6454 -1.4223 -2.84383 12.8899 0.0844133 0.0001 13.3602 -1.6265 -2.89498 12.882 0.346977 -3.55271e-015 15.0325 0.7929 -7.11122 1.20706 -0.656895 -7.10543e-015 10.3218 3.1424 4.54359 -44.263 -7.97435 6.1058 9.1104 0.7056 -11.5733 1.28067 0.813654 12.655 -0.2659 -2.6009 -25.7945 6.77362 -28.0752 27.4047 0 1.42109e-014 2.57889e-006 -5.57367e-006 -58.5477 27.6145 -7.10543e-015 -3.55271e-015 21.5361 32.6936 -24.8774 12.7755 0 0 -2.56935 -0.00695266 0.309838 3.614 0 -8.88178e-016 -10.3566 -0.112611 1.24259 3.4598 7.10543e-015 8.88178e-016 -5.1706 -0.0281263 0.622886 3.7888 -2.167 3.0031 1.7862 -3.04747 -23.2618 3.6754 -2.122 2.122 1.83868 6.32849 26.7275 3.3944 -1.9597 1.9598 3.37275 0.912723 11.0003 12.2666 -0.2317 2.8221 -2.58532 -0.00703688 0.311761 3.892 -7.10543e-015 -8.88178e-016 -10.3406 -0.112264 1.24069 3.4152 1.42109e-014 8.88178e-016 -5.17061 -0.0281229 0.622887 12.147 0.0099 -2.2166 -2.58532 -0.00703688 0.311761 3.6012 0 -2.66454e-015 -10.3406 -0.112264 1.24069 3.3073 0 -1.77636e-015 -5.17061 -0.0281229 0.622887 10.9082 -0.2264 -4.7258 -2.07587 0.0137676 4.36608 4.1367 7.10543e-015 -2.66454e-015 -10.8327 0.632916 -2.74462 2.5948 -7.10543e-015 0 -5.1706 -0.028123 0.622898 -6.1057 9.1105 0.7056 2.30259 2.56463 5.40076 -12.655 -0.266 -2.6009 62.676 12.0858 39.0294 -27.4047 7.10543e-015 0 -3.8359e-007 -3.6878e-006 56.1533 -27.6145 7.10543e-015 -7.10543e-015 -2.67342 22.1454 1.34795 -12.7755 0 -3.55271e-015 -1.56968e-007 0 -1.44278e-007 -3.614 7.10543e-015 0 15.9377 -0.268357 -1.91687 -3.4598 0 -7.10543e-015 7.96997 -0.0674162 -0.967774 -3.7888 -2.167 3.0031 -5.94721 -1.88338 0.384087 -3.6754 -2.122 2.122 -1.19445 6.73774 -26.0446 -3.3944 -1.9597 1.9598 -2.97002 -0.0444163 -8.62405 -12.2666 -0.2317 2.8221 -1.56968e-007 0 -1.44278e-007 -3.892 0 0 15.9377 -0.268357 -1.91687 -3.4152 0 -7.10543e-015 7.96997 -0.0674162 -0.967774 -12.147 0.0099 -2.2166 -1.56968e-007 0 -1.44278e-007 -3.6012 0 1.06581e-014 15.9377 -0.268357 -1.91687 -3.3073 0 3.55271e-015 7.96997 -0.0674162 -0.967774 -10.9082 -0.2264 -4.7258 -1.56968e-007 0 -1.44278e-007 -4.1367 0 -3.55271e-015 15.9377 -0.268357 -1.91687 -2.5948 0 3.55271e-015 7.96997 -0.0674162 -0.967774 -9.1245 -6.6564 -0.0554 -22.7897 -46.7841 -21.6047 -0.2447 -40.5954 -0.5145 3.0853 50.1033 -5.99471 0.2447 -42.0479 -2.0602 12.9633 -16.9078 1.66387 -0.3734 -10.4922 12.6407 -2.66974e-007 -1.11413 -3.22292e-005 9.1245 -6.6564 -0.0554 43.9544 -51.2369 40.2965 0.2447 -40.5954 -0.517 3.47497 38.3968 -4.07374 -0.2447 -42.048 -2.0576 -20.6592 2.9354 1.72328 0.3734 -10.4922 12.6407 5.59921e-007 -5.14463 -1.44347e-006 
